# xmcd
#
# Track frame offsets: 
#        150
#        22211
#        46524
#        64233
#        87602
#        113025
#        130245
#        145270
#        169820
#        186123
#        204798
#
# Disc length: 3407 seconds
#
# Revision: 0
# Processed by: cddbd v1.5.2PL0 Copyright (c) Steve Scherf et al.
# Submitted via: ExactAudioCopyFreeDBPlugin 1.0
#
DISCID=980d4d0b
DTITLE=Kitchen Dwellers - Kitchen Dwellers
DYEAR=2013
DGENRE=Bluegrass
TTITLE0=Smuggler Union
TTITLE1=Two Dollar Bill
TTITLE2=Black Cat
TTITLE3=Echo Niner
TTITLE4=Mississippi Delta Queen
TTITLE5=Bloody Death
TTITLE6=S.I.R.
TTITLE7=Farmer's Son
TTITLE8=The Sea Song
TTITLE9=Last Year
TTITLE10=Redneck Bastard
EXTD=
EXTT0=
EXTT1=
EXTT2=
EXTT3=
EXTT4=
EXTT5=
EXTT6=
EXTT7=
EXTT8=
EXTT9=
EXTT10=
PLAYORDER=
